<?xml version="1.0" standalone="no"?>
<!DOCTYPE svg PUBLIC "-//W3C//DTD SVG 20010904//EN"
 "http://www.w3.org/TR/2001/REC-SVG-20010904/DTD/svg10.dtd">
<svg version="1.0" xmlns="http://www.w3.org/2000/svg"
 width="618.475798pt" height="627.877712pt" viewBox="0 0 618.475798 627.877712"
 preserveAspectRatio="xMidYMid meet">
<metadata>Created by Svg.la</metadata>
<g transform="translate(-204.543144,826.565011) scale(0.100000,-0.100000)"
fill="#000000" stroke="none">
<path d="M4870 8259 c-572 -50 -1134 -271 -1602 -630 -212 -163 -402 -346
-552 -533 -160 -200 -250 -342 -371 -588 -119 -241 -179 -419 -238 -703 -57
-273 -62 -326 -62 -690 1 -302 3 -356 24 -485 61 -393 159 -690 321 -970 34
-58 38 -74 42 -150 4 -73 9 -94 38 -149 38 -71 93 -119 168 -147 39 -14 61
-34 132 -121 96 -118 310 -329 433 -428 205 -166 511 -350 728 -440 407 -168
776 -240 1229 -238 591 2 1100 146 1595 451 210 130 338 233 545 441 194 194
265 280 405 491 258 386 408 773 484 1240 90 555 31 1165 -161 1652 -64 164
-189 414 -273 548 -305 483 -755 887 -1270 1140 -324 160 -615 249 -964 296
-141 18 -507 26 -651 13z m635 -310 c539 -78 1018 -298 1460 -671 371 -313
665 -754 823 -1229 112 -340 145 -543 146 -904 0 -180 -4 -269 -17 -355 -18
-120 -48 -283 -53 -288 -1 -2 -19 15 -39 37 -42 46 -123 88 -233 121 -138 42
-260 16 -389 -82 l-63 -47 -30 43 c-26 38 -110 106 -131 106 -4 0 -65 58 -136
128 -70 71 -168 158 -218 195 -106 79 -271 162 -423 214 -109 37 -109 37 -137
88 -16 27 -46 67 -68 87 -27 26 -35 39 -26 42 8 2 39 12 69 22 185 57 330 202
394 394 37 108 46 261 23 360 -14 57 -14 73 -1 125 20 88 18 263 -5 360 -23
95 -49 157 -97 235 -25 41 -38 76 -45 126 -14 100 -54 176 -140 269 -41 44
-93 105 -117 136 -97 129 -241 244 -405 325 -140 69 -226 88 -366 82 -87 -4
-122 -11 -195 -38 -85 -32 -92 -32 -151 -21 -266 49 -526 -47 -745 -275 -163
-169 -290 -384 -325 -549 -10 -44 -30 -102 -45 -130 -85 -151 -112 -351 -71
-529 21 -89 21 -98 7 -147 -22 -74 -20 -208 4 -303 28 -112 73 -190 160 -276
81 -82 171 -134 288 -165 34 -10 62 -21 62 -25 0 -5 -15 -27 -34 -49 -19 -23
-42 -63 -50 -89 -16 -46 -19 -49 -74 -67 -73 -23 -240 -110 -350 -183 -55 -36
-142 -111 -238 -206 -83 -82 -155 -148 -160 -148 -5 1 -12 20 -16 44 -20 113
-111 227 -226 281 -58 27 -80 32 -168 35 -156 6 -256 -27 -391 -130 -50 -38
-183 -190 -183 -209 0 -5 -4 -9 -9 -9 -33 0 -53 562 -28 780 42 354 130 656
279 954 232 464 571 835 1028 1126 313 199 682 339 1056 401 259 43 542 46
799 8z m-96 -210 c85 -15 201 -64 290 -124 102 -67 225 -187 267 -259 20 -33
57 -80 84 -103 26 -23 62 -65 80 -94 29 -43 34 -63 40 -135 6 -77 10 -88 49
-143 117 -167 148 -363 91 -567 l-21 -74 25 -74 c40 -114 32 -221 -24 -341
-53 -111 -159 -205 -231 -205 l-33 0 56 58 c78 79 103 136 102 235 -1 73 -4
85 -49 173 l-47 94 12 100 c19 156 -1 271 -76 429 -87 185 -225 356 -343 426
-36 21 -49 34 -44 45 31 76 -5 171 -88 230 -63 45 -207 45 -349 -1 -94 -31
-315 -139 -545 -266 -110 -61 -211 -114 -225 -118 -34 -10 -54 -28 -122 -113
-65 -82 -126 -201 -159 -313 -20 -65 -23 -97 -23 -264 l-1 -190 -40 -79 c-37
-74 -40 -86 -40 -160 0 -102 23 -154 100 -235 30 -32 55 -61 55 -64 0 -13 -46
-6 -88 13 -61 28 -167 137 -197 203 -51 110 -57 244 -15 341 l20 48 -27 77
c-24 67 -27 90 -27 196 0 136 19 203 76 261 27 28 30 39 33 105 4 87 30 170
92 294 64 129 122 206 238 320 203 199 418 274 615 214 l68 -20 78 29 c168 64
222 72 343 51z m76 -389 c21 -34 -99 -157 -305 -311 -227 -171 -371 -234 -592
-258 -84 -9 -220 -2 -235 12 -18 19 90 121 181 171 34 19 135 75 226 126 251
139 437 228 520 250 80 20 195 26 205 10z m199 -361 c107 -93 193 -193 170
-197 -56 -12 -175 80 -225 174 -30 55 -44 94 -34 94 4 0 44 -32 89 -71z m-169
-35 c38 -67 92 -139 176 -231 38 -42 58 -79 98 -180 98 -251 132 -403 133
-593 0 -160 -19 -248 -82 -368 -53 -102 -155 -229 -240 -297 -74 -61 -203
-125 -301 -152 -87 -24 -280 -23 -368 1 -149 41 -268 114 -387 237 -114 120
-166 208 -209 356 -68 234 -32 516 100 776 31 62 61 117 66 123 5 6 55 14 111
17 271 17 557 137 803 336 28 23 53 41 57 41 3 0 23 -30 43 -66z m-1122 -309
c22 -4 37 -11 37 -20 0 -23 -51 -75 -119 -121 -65 -43 -66 -44 -69 -21 -2 13
7 48 19 78 11 30 25 64 30 76 6 18 14 22 36 18 15 -2 45 -7 66 -10z m1527 -60
c16 -8 36 -28 44 -43 17 -33 36 -122 36 -165 -1 -32 -1 -31 -24 16 -13 27 -35
61 -49 75 -27 29 -87 127 -87 142 0 10 30 1 80 -25z m-1640 -240 c-33 -35 -50
-43 -50 -26 0 7 67 59 79 60 3 1 -10 -15 -29 -34z m1793 -374 c21 -36 22 -112
2 -155 -14 -28 -52 -63 -61 -54 -1 2 3 40 11 83 8 44 14 97 15 118 0 45 10 47
33 8z m-1878 -58 c4 -43 11 -93 17 -111 13 -45 7 -55 -21 -36 -30 21 -51 72
-51 124 0 41 23 100 39 100 5 0 12 -35 16 -77z m1676 -614 c39 -41 37 -68 -10
-126 -118 -147 -372 -354 -598 -486 -61 -35 -64 -36 -101 -23 -21 8 -74 22
-118 31 -163 36 -405 186 -568 353 -79 81 -126 146 -126 175 0 20 72 97 90 97
5 0 21 -17 34 -38 67 -106 290 -239 472 -283 299 -71 594 24 804 261 34 39 69
70 77 70 8 0 28 -14 44 -31z m139 -159 c0 -5 -7 -10 -16 -10 -8 0 -12 5 -9 10
3 6 10 10 16 10 5 0 9 -4 9 -10z m-1789 -82 c17 -41 125 -150 210 -213 66 -49
235 -137 301 -157 48 -14 49 -28 3 -28 -19 0 -77 -7 -127 -16 -153 -26 -214
-18 -348 46 -63 30 -173 87 -243 127 -70 39 -137 75 -147 78 -26 8 -25 16 9
42 60 47 273 148 322 152 4 1 13 -14 20 -31z m2112 -43 c67 -31 133 -64 146
-74 l25 -19 -125 -82 c-115 -76 -239 -147 -239 -136 0 3 14 46 31 97 40 120
40 166 -1 231 l-31 51 36 -6 c20 -3 91 -31 158 -62z m-272 -36 c27 -27 25 -42
-51 -294 -68 -226 -155 -549 -164 -612 -5 -37 -3 -44 18 -58 31 -21 52 -11 96
45 22 28 38 39 49 35 15 -4 23 16 54 129 67 239 70 276 26 276 -22 0 -22 0 -3
21 24 26 67 49 93 49 11 0 39 -7 61 -16 33 -14 42 -23 51 -57 8 -30 8 -51 0
-76 -10 -33 -8 -32 52 31 93 97 172 128 251 98 35 -13 66 -67 66 -114 l0 -39
47 47 c80 82 129 110 200 114 60 4 64 3 92 -27 32 -34 47 -91 36 -143 -3 -18
-22 -80 -40 -138 -59 -183 -65 -209 -55 -235 13 -33 39 -32 86 6 50 40 52 42
69 141 36 210 198 390 363 405 64 6 126 -14 149 -47 10 -14 26 -20 51 -20 21
0 48 -7 61 -16 29 -21 27 -36 -30 -234 -46 -161 -53 -221 -28 -246 15 -14 19
-14 47 0 16 8 45 34 65 57 20 25 39 39 46 35 20 -13 12 -62 -18 -100 -57 -71
-118 -106 -188 -106 -77 0 -109 26 -137 113 -5 16 -12 13 -54 -24 -64 -57
-143 -93 -189 -86 -44 8 -96 47 -113 86 l-12 30 -32 -33 c-74 -78 -190 -115
-254 -82 -75 39 -79 100 -17 297 57 180 66 219 54 240 -5 11 -16 19 -24 19
-35 0 -167 -150 -202 -229 -9 -20 -37 -99 -63 -176 l-47 -140 -54 -3 c-29 -2
-64 0 -77 3 -23 6 -24 9 -18 54 3 27 29 130 56 229 28 99 50 193 50 209 0 70
-48 58 -123 -30 -65 -75 -117 -184 -163 -336 l-39 -131 -55 0 c-30 0 -66 3
-79 7 -21 5 -23 10 -18 47 3 23 9 51 13 61 4 11 -9 2 -28 -20 -69 -79 -176
-118 -246 -90 -42 17 -62 47 -62 95 0 17 -2 30 -3 30 -2 0 -24 -18 -48 -41
-86 -80 -170 -106 -242 -75 -40 16 -87 70 -87 98 0 16 -11 10 -58 -34 -63 -58
-110 -78 -186 -78 -38 0 -52 6 -82 33 -48 44 -54 94 -24 208 13 46 33 122 45
169 24 91 21 123 -13 128 -40 6 -163 -131 -220 -244 -12 -23 -36 -95 -55 -160
l-35 -119 -78 0 -79 0 1 40 c0 22 4 54 8 70 7 29 6 28 -13 -6 -11 -20 -35 -49
-52 -63 -117 -99 -251 -86 -280 28 l-10 41 -50 -48 c-93 -89 -196 -113 -260
-60 -89 75 -92 237 -7 413 57 119 190 225 294 238 46 5 109 -12 137 -37 14
-12 35 -15 87 -12 38 1 73 0 79 -3 9 -6 -7 -71 -84 -356 -28 -104 -27 -155 5
-165 29 -9 55 9 91 65 31 48 62 65 71 38 6 -17 88 314 88 352 0 23 -5 30 -19
30 -17 0 -18 3 -8 25 14 28 44 44 101 51 88 12 125 -30 109 -124 l-10 -52 65
65 c85 86 135 115 204 117 64 2 99 -18 123 -69 23 -49 16 -103 -35 -259 -50
-154 -58 -205 -36 -223 25 -21 65 -4 118 50 45 47 48 53 48 103 0 143 108 314
242 380 87 44 143 47 213 11 27 -13 50 -23 51 -22 7 7 98 361 103 402 7 55 18
62 104 64 35 1 52 -4 68 -20z m-2983 -83 c123 -62 174 -189 120 -296 -42 -82
-133 -115 -192 -69 -33 26 -33 43 1 83 84 99 56 212 -52 210 -109 -2 -228
-105 -310 -267 -59 -119 -85 -224 -85 -342 0 -141 35 -232 109 -282 62 -42
168 -26 229 35 30 30 41 52 55 111 22 90 17 99 -56 93 -74 -6 -97 8 -97 58 0
35 5 43 33 61 29 19 44 20 180 16 81 -2 152 -8 158 -14 7 -7 3 -61 -11 -164
-57 -409 -117 -601 -224 -717 -51 -56 -100 -81 -174 -88 -142 -15 -240 68
-230 194 4 48 10 60 41 89 30 27 45 33 81 33 36 0 48 -5 65 -26 32 -41 27 -61
-16 -69 -51 -9 -63 -21 -63 -61 0 -46 29 -74 79 -74 65 0 118 60 155 175 14
45 66 277 66 299 0 4 -17 -7 -38 -26 -80 -72 -203 -105 -299 -79 -104 28 -196
128 -236 256 -42 135 -21 345 49 494 55 116 165 246 264 309 129 83 299 108
398 58z m2631 -98 c-11 -29 -23 -56 -25 -60 -10 -15 -59 -36 -104 -43 -25 -4
-63 -14 -85 -22 -22 -7 -35 -9 -29 -3 26 26 240 179 251 180 9 0 7 -15 -8 -52z
m970 -54 c65 -66 81 -88 70 -95 -21 -13 -100 -5 -136 14 -44 23 -130 22 -199
-4 -39 -15 -62 -18 -76 -12 -17 7 -1 21 109 95 70 47 133 86 138 87 6 0 48
-38 94 -85z m-2808 13 c57 -29 122 -60 144 -69 35 -13 37 -16 20 -23 -11 -4
-44 -18 -72 -31 l-53 -23 -43 25 c-66 37 -147 49 -208 31 -27 -8 -49 -14 -49
-13 0 4 146 155 151 155 4 1 53 -23 110 -52z m-357 -230 c15 -19 17 -32 11
-92 l-6 -70 29 45 c30 46 77 94 122 123 34 23 93 22 114 -2 27 -29 32 -94 12
-146 -43 -111 -159 -131 -142 -25 9 55 -11 53 -63 -7 -56 -66 -103 -167 -149
-319 l-39 -129 -76 -3 c-94 -3 -91 -23 -38 246 60 303 63 320 52 340 -13 25
-1 41 45 58 49 17 103 10 128 -19z m2641 -886 c552 -46 906 -102 1145 -180
111 -37 109 -30 34 -124 -451 -560 -1042 -910 -1732 -1026 -613 -103 -1270 7
-1798 300 -282 157 -504 332 -726 572 l-91 98 40 42 c22 23 54 63 72 89 35 53
32 51 226 92 242 50 669 104 1080 136 322 26 415 28 945 25 458 -2 599 -6 805
-24z"/>
<path d="M3305 5820 c-76 -38 -120 -131 -134 -281 -6 -68 -9 -78 -15 -54 -36
135 -88 234 -139 265 -88 54 -168 -10 -123 -98 14 -27 84 -97 161 -159 39 -32
38 -32 -54 12 -107 51 -154 57 -195 24 -35 -27 -34 -67 2 -102 47 -45 97 -59
237 -68 117 -7 132 -10 148 -30 18 -22 18 -22 32 -2 7 10 47 34 87 52 153 67
163 73 166 108 2 23 -3 35 -20 47 -49 35 -128 8 -200 -69 -24 -25 -46 -45 -50
-45 -21 0 39 86 121 175 99 107 120 149 101 194 -11 27 -46 51 -73 51 -7 0
-30 -9 -52 -20z"/>
<path d="M6840 5827 c-20 -10 -26 -21 -28 -56 -4 -51 14 -82 105 -181 60 -66
113 -137 113 -153 0 -5 -19 7 -41 28 -23 21 -66 48 -95 62 -63 29 -100 23
-124 -20 -13 -23 -13 -28 3 -45 9 -10 60 -36 113 -56 52 -21 109 -50 125 -63
27 -23 32 -24 47 -11 11 10 50 18 114 22 118 8 212 35 256 75 60 55 33 121
-49 121 -49 0 -92 -16 -169 -63 -73 -45 -60 -23 27 44 72 56 133 134 133 170
0 16 -9 38 -21 50 -17 17 -30 20 -66 16 -24 -2 -53 -13 -65 -23 -39 -36 -82
-109 -109 -187 -15 -43 -29 -81 -32 -83 -2 -3 -6 36 -9 84 -8 134 -59 236
-135 268 -40 17 -61 17 -93 1z"/>
<path d="M3381 5305 c-57 -18 -139 -75 -171 -120 -14 -19 -33 -37 -42 -40 -35
-12 -7 -68 29 -59 11 3 37 1 57 -4 40 -12 55 -3 81 47 17 34 67 79 140 126 72
46 73 65 3 64 -29 0 -73 -7 -97 -14z"/>
<path d="M6712 5308 c3 -7 36 -34 74 -59 38 -26 94 -75 124 -109 l54 -62 50 7
c28 3 59 14 69 24 18 18 17 20 -45 86 -34 37 -79 75 -98 85 -69 35 -237 56
-228 28z"/>
<path d="M4656 6575 c-49 -17 -93 -60 -101 -97 -9 -40 -2 -44 29 -13 45 44
104 66 154 54 23 -5 51 -15 62 -21 16 -10 23 -10 37 4 16 17 16 19 -6 42 -14
15 -43 29 -73 35 -59 13 -54 13 -102 -4z"/>
<path d="M5431 6577 c-45 -16 -61 -41 -40 -63 15 -15 21 -14 70 1 72 23 125 9
179 -46 42 -44 58 -38 40 15 -28 86 -145 129 -249 93z"/>
<path d="M4660 6318 c-35 -18 -44 -28 -43 -45 3 -25 -7 -29 -24 -12 -16 16
-32 3 -26 -21 4 -15 9 -17 23 -10 29 16 40 12 40 -13 0 -53 62 -94 124 -83 47
9 76 47 76 99 l0 40 23 -21 c29 -27 37 -28 30 -2 -10 38 -101 90 -157 90 -12
0 -42 -10 -66 -22z m18 -77 c-2 -14 -7 -18 -17 -12 -8 6 -11 16 -6 31 9 27 28
12 23 -19z"/>
<path d="M5398 6306 c-46 -35 -73 -68 -62 -79 3 -3 19 9 35 26 l28 32 1 -42
c0 -81 74 -131 144 -98 41 19 56 63 35 101 -20 38 0 42 30 7 28 -33 54 -42 66
-22 4 6 -1 13 -12 15 -10 3 -23 15 -28 26 -18 40 -61 62 -128 65 -58 3 -65 1
-109 -31z"/>
<path d="M4981 6004 c-64 -82 20 -204 142 -204 63 0 105 19 145 64 40 45 42
93 5 107 -19 7 -25 3 -39 -24 -29 -57 -43 -67 -95 -67 -87 0 -105 17 -111 104
-4 49 -19 55 -47 20z"/>
<path d="M4811 5744 c-47 -41 -51 -58 -18 -75 12 -6 52 -40 89 -76 88 -84 140
-107 243 -107 99 -1 142 19 235 109 36 35 75 66 87 69 11 4 24 13 27 22 8 22
-53 83 -91 90 -31 6 -32 6 -35 -37 -3 -43 -5 -45 -63 -74 -55 -27 -69 -30
-160 -30 -109 0 -164 13 -216 48 -23 16 -33 30 -30 43 7 39 6 48 -11 52 -9 2
-35 -13 -57 -34z"/>
<path d="M5584 4456 c-45 -39 -94 -124 -118 -205 -19 -64 -21 -169 -4 -206 26
-57 94 -39 161 43 28 35 48 81 82 184 25 75 45 144 45 153 0 9 -11 27 -25 40
-37 38 -91 34 -141 -9z"/>
<path d="M4104 4438 c-96 -89 -171 -317 -132 -403 9 -20 18 -25 46 -25 27 0
42 8 69 37 58 61 80 102 127 241 56 164 51 192 -35 192 -21 0 -43 -12 -75 -42z"/>
<path d="M7427 4454 c-99 -67 -191 -306 -157 -408 14 -43 39 -52 85 -30 64 30
124 130 174 289 33 107 38 144 19 163 -21 21 -81 14 -121 -14z"/>
<path d="M6550 3255 c0 -12 -14 -15 -63 -15 -53 0 -67 -4 -85 -23 -12 -13 -22
-35 -22 -49 0 -25 2 -26 81 -30 119 -7 129 -4 129 43 0 40 -17 89 -32 89 -4 0
-8 -7 -8 -15z m-6 -94 c9 -13 -7 -16 -65 -12 -35 2 -47 6 -38 12 18 12 96 11
103 0z"/>
<path d="M3865 3186 c-25 -68 -27 -96 -6 -96 4 0 18 23 31 50 13 28 28 50 33
50 21 0 87 -45 87 -59 0 -11 3 -12 11 -4 6 6 9 23 7 39 -2 21 -14 35 -48 55
-83 50 -84 49 -115 -35z"/>
<path d="M5235 3220 c-22 -15 -44 -26 -48 -23 -5 3 -1 -9 7 -26 25 -47 85 -68
114 -39 19 19 14 72 -8 96 -12 12 -22 22 -23 21 -1 0 -20 -13 -42 -29z"/>
<path d="M4115 3142 c0 -79 -58 -137 -143 -144 -34 -2 -38 -8 -22 -36 19 -31
70 -165 66 -170 -13 -12 -78 22 -91 49 -9 16 -18 29 -20 29 -3 0 7 -23 21 -51
22 -41 36 -55 71 -70 25 -11 48 -17 53 -14 4 3 -5 35 -20 72 -45 109 -45 110
-12 117 108 24 160 128 114 229 l-17 39 0 -50z"/>
<path d="M5170 3099 c0 -5 11 -9 25 -9 14 0 25 2 25 4 0 2 -11 6 -25 8 -14 3
-25 1 -25 -3z"/>
<path d="M6333 3070 c22 -60 56 -86 120 -93 32 -4 69 -4 83 -1 27 7 51 51 36
66 -5 5 -55 13 -110 17 -75 6 -107 12 -122 26 -19 17 -19 17 -7 -15z"/>
<path d="M6196 3055 c17 -42 18 -79 2 -93 -20 -16 -108 -43 -160 -49 -38 -5
-48 -10 -48 -24 0 -45 86 -49 189 -7 52 21 54 21 67 3 18 -25 18 -7 -2 68 -14
57 -49 137 -59 137 -2 0 3 -16 11 -35z"/>
<path d="M5998 3069 c-19 -11 -42 -83 -34 -105 5 -12 11 -12 43 0 21 7 57 19
81 25 35 10 42 16 42 36 0 13 -10 31 -22 39 -25 18 -84 21 -110 5z"/>
<path d="M6650 3056 c16 -43 -13 -95 -70 -124 -38 -20 -55 -23 -112 -18 -60 4
-68 3 -68 -13 0 -34 42 -61 94 -61 96 0 175 43 190 105 8 30 -7 92 -29 120
-14 19 -14 18 -5 -9z"/>
<path d="M4359 3035 c-24 -13 -59 -69 -59 -94 0 -7 30 -11 85 -11 l85 0 0 29
c0 16 6 31 13 34 8 3 6 11 -8 25 -27 28 -83 36 -116 17z"/>
<path d="M5543 3043 c-25 -3 -34 -10 -39 -30 -8 -29 12 -183 25 -196 4 -4 11
20 14 55 4 48 11 67 27 80 38 30 92 18 111 -25 8 -18 9 -14 5 17 -6 45 -28 73
-73 92 -18 8 -34 13 -35 12 -2 0 -18 -3 -35 -5z"/>
<path d="M3770 2976 c-33 -65 -42 -70 -77 -43 -23 17 -14 -9 10 -29 22 -20 73
-54 80 -54 2 0 17 27 32 61 15 33 28 59 30 57 2 -2 15 -23 30 -48 15 -25 24
-36 20 -25 -4 11 -14 40 -22 65 -14 41 -44 80 -63 80 -4 0 -22 -29 -40 -64z"/>
<path d="M5010 3013 c0 -37 -6 -40 -39 -17 -33 23 -116 21 -149 -3 -49 -36
-66 -69 -66 -128 -1 -38 4 -59 15 -71 16 -15 17 -14 24 17 12 53 33 87 65 104
37 19 89 19 114 0 23 -17 62 -20 71 -5 9 15 -5 97 -21 117 -12 16 -13 15 -14
-14z"/>
<path d="M5250 2987 c0 -30 -3 -109 -7 -175 l-6 -122 -39 0 c-38 0 -39 -1 -36
-32 3 -33 4 -33 59 -36 l57 -3 1 128 c1 70 4 153 7 183 6 56 -7 110 -26 110
-5 0 -10 -24 -10 -53z"/>
<path d="M5756 2993 c39 -92 -3 -210 -89 -252 -43 -21 -47 -21 -82 -6 -21 8
-40 15 -43 15 -5 0 2 -59 14 -117 6 -33 6 -33 -35 -33 -39 0 -41 -2 -41 -29 0
-42 21 -55 76 -46 l47 7 -6 46 c-4 26 -9 56 -12 67 -6 18 -2 20 47 17 43 -3
60 1 88 20 53 36 80 91 80 165 0 60 -30 165 -50 178 -5 3 -2 -11 6 -32z"/>
<path d="M4558 2954 c-2 -38 -9 -51 -31 -68 -32 -24 -133 -34 -190 -18 -35 10
-37 9 -37 -14 0 -14 12 -37 27 -52 24 -23 28 -25 31 -9 4 21 54 23 75 3 15
-15 80 -8 129 14 35 16 45 75 23 141 -9 27 -18 49 -20 49 -2 0 -5 -21 -7 -46z"/>
<path d="M5890 2891 c0 -6 9 -29 20 -50 69 -136 175 -174 302 -108 68 35 78
52 51 85 l-18 22 -59 -30 c-46 -24 -72 -30 -120 -30 -80 0 -123 22 -153 79
-13 24 -23 39 -23 32z"/>
<path d="M4220 2815 c0 -23 74 -117 111 -142 55 -36 137 -37 200 -2 51 28 60
52 27 78 -22 19 -23 19 -53 -2 -24 -18 -44 -22 -100 -22 -86 0 -129 17 -161
64 -13 20 -24 31 -24 26z"/>
<path d="M4678 2763 c6 -33 78 -110 123 -133 49 -26 121 -25 179 1 64 29 81
47 74 78 -12 49 -27 55 -62 23 -73 -68 -202 -63 -276 12 -36 35 -42 38 -38 19z"/>
</g>
</svg>
