<svg width="32" height="32" viewBox="0 0 32 32" fill="none" xmlns="http://www.w3.org/2000/svg">
<path d="M25.3762 13.1881C25.3762 15.8777 24.5031 18.3622 23.0323 20.3779L30.4507 27.8021C31.1831 28.5345 31.1831 29.7241 30.4507 30.4565C29.7182 31.189 28.5287 31.189 27.7962 30.4565L20.3779 23.0323C18.3622 24.509 15.8777 25.3762 13.1881 25.3762C6.45534 25.3762 1 19.9208 1 13.1881C1 6.45534 6.45534 1 13.1881 1C19.9208 1 25.3762 6.45534 25.3762 13.1881ZM13.1881 21.626C14.2962 21.626 15.3934 21.4078 16.4171 20.9837C17.4409 20.5597 18.3711 19.9381 19.1546 19.1546C19.9381 18.3711 20.5597 17.4409 20.9837 16.4171C21.4078 15.3934 21.626 14.2962 21.626 13.1881C21.626 12.08 21.4078 10.9828 20.9837 9.95905C20.5597 8.93531 19.9381 8.00512 19.1546 7.22159C18.3711 6.43806 17.4409 5.81653 16.4171 5.39248C15.3934 4.96844 14.2962 4.75018 13.1881 4.75018C12.08 4.75018 10.9828 4.96844 9.95905 5.39248C8.93531 5.81653 8.00512 6.43806 7.22159 7.22159C6.43806 8.00512 5.81652 8.93531 5.39248 9.95905C4.96844 10.9828 4.75018 12.08 4.75018 13.1881C4.75018 14.2962 4.96844 15.3934 5.39248 16.4171C5.81652 17.4409 6.43806 18.3711 7.22159 19.1546C8.00512 19.9381 8.93531 20.5597 9.95905 20.9837C10.9828 21.4078 12.08 21.626 13.1881 21.626Z" fill="black"/>
</svg>
