<?xml version="1.0" standalone="no"?>
<!DOCTYPE svg PUBLIC "-//W3C//DTD SVG 20010904//EN"
 "http://www.w3.org/TR/2001/REC-SVG-20010904/DTD/svg10.dtd">
<svg version="1.0" xmlns="http://www.w3.org/2000/svg"
 width="375.962417pt" height="363.388038pt" viewBox="0 0 375.962417 363.388038"
 preserveAspectRatio="xMidYMid meet">
<metadata>Created by Svg.la</metadata>
<g transform="translate(-49.037583,422.888038) scale(0.100000,-0.100000)"
fill="#000000" stroke="none">
<path d="M1310 4191 c-58 -20 -121 -46 -140 -56 -107 -55 -170 -127 -189 -217
-32 -149 89 -251 314 -264 l90 -6 -55 27 c-158 76 -218 199 -158 324 28 58
119 149 192 190 31 18 56 34 56 37 0 5 10 8 -110 -35z"/>
<path d="M1405 3972 l-50 -7 105 -35 c117 -39 183 -78 218 -130 20 -30 23 -44
19 -92 -11 -130 -175 -312 -493 -548 -59 -44 -102 -80 -96 -80 7 0 62 24 124
53 354 167 616 397 673 591 18 59 19 85 4 123 -32 86 -125 122 -324 128 -71 2
-152 0 -180 -3z"/>
<path d="M1195 3393 c-11 -3 -81 -25 -155 -50 -363 -120 -533 -278 -548 -508
-4 -77 -2 -89 22 -138 71 -146 259 -233 526 -243 98 -3 120 -2 100 7 -201 91
-279 153 -333 266 -27 58 -32 79 -32 143 0 66 5 85 38 155 59 123 192 247 372
347 49 27 51 31 10 21z"/>
<path d="M2348 3344 c-27 -14 -27 -13 -44 -164 -5 -46 -2 -60 13 -79 18 -22
34 -24 273 -47 140 -13 276 -24 301 -24 65 0 78 18 90 129 9 79 8 96 -5 117
-20 30 -14 29 -301 54 -132 11 -254 22 -270 24 -17 2 -42 -2 -57 -10z"/>
<path d="M1830 2980 c-209 -21 -386 -62 -493 -117 -78 -39 -157 -121 -157
-162 0 -24 51 -40 165 -50 66 -6 516 -47 1000 -91 484 -45 1013 -93 1176 -108
163 -15 303 -26 312 -24 26 5 30 38 9 85 -87 197 -550 372 -1187 447 -199 24
-672 35 -825 20z m70 -92 c-83 -32 -154 -81 -191 -133 l-34 -47 -103 7 c-120
8 -199 19 -210 30 -14 14 63 65 137 89 114 37 311 72 416 74 l40 1 -55 -21z"/>
<path d="M1106 2218 c-9 -12 -16 -38 -16 -56 0 -28 -3 -33 -17 -29 -110 32
-322 87 -335 87 -29 0 -38 -34 -38 -138 0 -81 3 -104 18 -120 12 -14 69 -34
194 -67 l177 -48 3 -496 3 -496 26 -56 c36 -76 86 -129 161 -170 l63 -34 1135
0 1135 0 63 34 c74 40 124 93 161 171 l26 55 3 496 3 496 176 48 c97 27 182
55 189 63 10 10 14 44 14 122 0 124 -4 140 -34 140 -16 0 -222 -54 -328 -86
-15 -4 -18 1 -18 30 0 23 -7 43 -20 56 -20 20 -33 20 -1374 20 l-1355 0 -15
-22z m906 -277 c10 -15 13 -121 12 -520 0 -324 -4 -505 -11 -512 -6 -6 -102
-9 -266 -7 l-255 3 -44 30 c-54 39 -84 83 -97 146 -15 67 -15 833 -1 860 10
18 25 19 330 19 300 0 320 -1 332 -19z"/>
</g>
</svg>
